<svg width="1200" height="720" viewBox="0 0 1200 720" fill="none" xmlns="http://www.w3.org/2000/svg">
  <rect width="1200" height="720" rx="34" fill="#F7FAFF"/>
  <rect x="36" y="34" width="1128" height="652" rx="28" fill="#FFFFFF" stroke="#DDE7F7" stroke-width="2"/>
  <rect x="76" y="72" width="420" height="576" rx="34" fill="#0B1020"/>
  <rect x="101" y="101" width="370" height="518" rx="24" fill="#F7FAFF"/>
  <rect x="128" y="128" width="316" height="58" rx="14" fill="#FFFFFF" stroke="#DDE7F7"/>
  <circle cx="154" cy="157" r="13" fill="#0B9B7E"/>
  <text x="178" y="151" fill="#0B1020" font-family="Inter,Arial,sans-serif" font-size="17" font-weight="800">Runtime ready</text>
  <text x="178" y="174" fill="#536079" font-family="Inter,Arial,sans-serif" font-size="12">Helper Service · shell · bg · webview</text>
  <text x="128" y="232" fill="#0B1020" font-family="Inter,Arial,sans-serif" font-size="26" font-weight="900">MobileCode</text>
  <text x="128" y="260" fill="#536079" font-family="Inter,Arial,sans-serif" font-size="14">Ask, build, preview, ship from phone</text>
  <rect x="128" y="294" width="316" height="88" rx="14" fill="#EEF9F6" stroke="#A8E7D9"/>
  <text x="154" y="328" fill="#0B1020" font-family="Inter,Arial,sans-serif" font-size="17" font-weight="900">Generated artifact</text>
  <text x="154" y="352" fill="#536079" font-family="Inter,Arial,sans-serif" font-size="12">mobilecode_projects/agent_snake/index.html</text>
  <rect x="128" y="400" width="148" height="44" rx="12" fill="#2555FF"/>
  <text x="164" y="428" fill="#FFFFFF" font-family="Inter,Arial,sans-serif" font-size="14" font-weight="800">Preview</text>
  <rect x="296" y="400" width="148" height="44" rx="12" fill="#FFFFFF" stroke="#D8C8FF"/>
  <text x="326" y="428" fill="#7557E8" font-family="Inter,Arial,sans-serif" font-size="14" font-weight="800">Publish</text>
  <rect x="128" y="472" width="316" height="112" rx="14" fill="#FFFFFF" stroke="#DDE7F7"/>
  <text x="154" y="506" fill="#0B1020" font-family="Inter,Arial,sans-serif" font-size="16" font-weight="900">GitHub Repo Hub</text>
  <text x="154" y="532" fill="#536079" font-family="Inter,Arial,sans-serif" font-size="12">Watch repos · browse files · run Actions</text>
  <rect x="154" y="550" width="96" height="22" rx="8" fill="#E9EEFF"/>
  <text x="172" y="566" fill="#2555FF" font-family="Inter,Arial,sans-serif" font-size="11" font-weight="800">Remote-linked</text>
  <rect x="264" y="550" width="72" height="22" rx="8" fill="#EAF8F3"/>
  <text x="282" y="566" fill="#0B9B7E" font-family="Inter,Arial,sans-serif" font-size="11" font-weight="800">Pages</text>
  <rect x="350" y="550" width="62" height="22" rx="8" fill="#FFF6E5"/>
  <text x="367" y="566" fill="#B7791F" font-family="Inter,Arial,sans-serif" font-size="11" font-weight="800">APK</text>
  <text x="548" y="126" fill="#0B1020" font-family="Inter,Arial,sans-serif" font-size="38" font-weight="950">GitHub-first mobile coding loop</text>
  <text x="550" y="162" fill="#536079" font-family="Inter,Arial,sans-serif" font-size="17">Phone stays light. GitHub handles repos, Pages, Actions, artifacts.</text>
  <g>
    <rect x="548" y="220" width="250" height="116" rx="18" fill="#FFFFFF" stroke="#DDE7F7" stroke-width="2"/>
    <circle cx="582" cy="256" r="14" fill="#2555FF"/>
    <text x="612" y="262" fill="#0B1020" font-family="Inter,Arial,sans-serif" font-size="18" font-weight="900">Generate</text>
    <text x="578" y="294" fill="#536079" font-family="Inter,Arial,sans-serif" font-size="13">HTML/UI skills, code artifacts,</text>
    <text x="578" y="316" fill="#536079" font-family="Inter,Arial,sans-serif" font-size="13">mobile preview and local files.</text>
  </g>
  <path d="M810 278h86" stroke="#A8B5CF" stroke-width="4" stroke-linecap="round"/>
  <path d="M880 260l22 18-22 18" stroke="#A8B5CF" stroke-width="4" stroke-linecap="round" stroke-linejoin="round"/>
  <g>
    <rect x="912" y="220" width="250" height="116" rx="18" fill="#FFFFFF" stroke="#DDE7F7" stroke-width="2"/>
    <circle cx="946" cy="256" r="14" fill="#0B9B7E"/>
    <text x="976" y="262" fill="#0B1020" font-family="Inter,Arial,sans-serif" font-size="18" font-weight="900">Publish</text>
    <text x="942" y="294" fill="#536079" font-family="Inter,Arial,sans-serif" font-size="13">GitHub Pages URL, repo URL,</text>
    <text x="942" y="316" fill="#536079" font-family="Inter,Arial,sans-serif" font-size="13">work card and share actions.</text>
  </g>
  <g>
    <rect x="548" y="384" width="250" height="116" rx="18" fill="#FFFFFF" stroke="#DDE7F7" stroke-width="2"/>
    <circle cx="582" cy="420" r="14" fill="#7557E8"/>
    <text x="612" y="426" fill="#0B1020" font-family="Inter,Arial,sans-serif" font-size="18" font-weight="900">Repo Hub</text>
    <text x="578" y="458" fill="#536079" font-family="Inter,Arial,sans-serif" font-size="13">Watchlist, local mapping,</text>
    <text x="578" y="480" fill="#536079" font-family="Inter,Arial,sans-serif" font-size="13">remote file edit and commit.</text>
  </g>
  <path d="M810 442h86" stroke="#A8B5CF" stroke-width="4" stroke-linecap="round"/>
  <path d="M880 424l22 18-22 18" stroke="#A8B5CF" stroke-width="4" stroke-linecap="round" stroke-linejoin="round"/>
  <g>
    <rect x="912" y="384" width="250" height="116" rx="18" fill="#FFFFFF" stroke="#DDE7F7" stroke-width="2"/>
    <circle cx="946" cy="420" r="14" fill="#B7791F"/>
    <text x="976" y="426" fill="#0B1020" font-family="Inter,Arial,sans-serif" font-size="18" font-weight="900">Actions build</text>
    <text x="942" y="458" fill="#536079" font-family="Inter,Arial,sans-serif" font-size="13">Run workflows, inspect jobs,</text>
    <text x="942" y="480" fill="#536079" font-family="Inter,Arial,sans-serif" font-size="13">download artifacts to phone.</text>
  </g>
  <rect x="548" y="548" width="614" height="74" rx="18" fill="#0B1020"/>
  <text x="578" y="586" fill="#FFFFFF" font-family="Inter,Arial,sans-serif" font-size="18" font-weight="900">v0.1.17+36</text>
  <text x="690" y="586" fill="#A8B5CF" font-family="Inter,Arial,sans-serif" font-size="14">RuntimeProvider · MobileCode Helper · External Termux · Cloud-ready fallback</text>
</svg>
